<?xml version="1.0" encoding="UTF-8"?>
<svg width="246.58mm" height="179.33mm" version="1.1" viewBox="0 0 873.72251 635.43305" xmlns="http://www.w3.org/2000/svg">
 <defs>
  <radialGradient id="n" cx="-314.28" cy="460.08" r="1.6545" gradientTransform="matrix(72.368 -.02163 -.02163 -72.368 23536 33657)" gradientUnits="userSpaceOnUse">
   <stop stop-color="#B9DAF4" offset="0"/>
   <stop stop-color="#7A97CB" offset="1"/>
  </radialGradient>
  <linearGradient id="h" x1="-269.39" x2="-267.74" y1="461.41" y2="461.41" gradientTransform="matrix(447.3 505.87 505.87 -447.3 -1.1242e5 3.4252e5)" gradientUnits="userSpaceOnUse">
   <stop stop-color="#FFD8BF" offset="0"/>
   <stop stop-color="#BF7400" offset=".5393"/>
   <stop offset="1"/>
  </linearGradient>
  <linearGradient id="i" x1="-269.41" x2="-267.71" y1="461.3" y2="461.3" gradientTransform="matrix(447.3 505.87 505.87 -447.3 -1.1242e5 3.4252e5)" gradientUnits="userSpaceOnUse">
   <stop stop-color="#F3C192" offset="0"/>
   <stop stop-color="#D49035" offset=".5393"/>
   <stop stop-color="#765735" offset="1"/>
  </linearGradient>
  <linearGradient id="j" x1="-269.44" x2="-267.68" y1="461.6" y2="461.6" gradientTransform="matrix(447.3 505.87 505.87 -447.3 -1.1242e5 3.4252e5)" gradientUnits="userSpaceOnUse">
   <stop stop-color="#F3C192" offset="0"/>
   <stop stop-color="#D49035" offset=".5393"/>
   <stop stop-color="#765735" offset="1"/>
  </linearGradient>
  <linearGradient id="k" x1="750.64" x2="640.94" y1="916.8" y2="640.42" gradientTransform="matrix(1 0 0 .64132 -26.33 295.24)" gradientUnits="userSpaceOnUse">
   <stop offset="0"/>
   <stop stop-color="#121212" offset="1"/>
  </linearGradient>
  <linearGradient id="l" x1="666.07" x2="666.07" y1="933.61" y2="948.47" gradientTransform="matrix(1 0 0 .64132 -26.33 295.24)" gradientUnits="userSpaceOnUse">
   <stop stop-color="#803300" offset="0"/>
   <stop stop-color="#520" offset="1"/>
  </linearGradient>
  <linearGradient id="m" x1="651.95" x2="651.95" y1="601.23" y2="939.97" gradientTransform="matrix(1 0 0 .64132 -26.33 295.24)" gradientUnits="userSpaceOnUse">
   <stop stop-color="#7d3200" offset="0"/>
   <stop stop-color="#532100" offset="1"/>
  </linearGradient>
 </defs>
 <g transform="translate(3994.9 -281.82)">
  <g transform="matrix(4.7175 0 0 4.7175 -13161 23.289)">
   <path transform="matrix(.21198 0 0 .21198 1814.5 47.217)" d="m942.23 246.36c-5.2473 18.16 3.9193 37.441-2.0202 56.129-4.7931 15.123-17.183 25.994-30.744 33.34 14.34 12.774 31.506-11.386 36.091-26.717 5.8054-19.384 0.74838-43.493-3.3266-62.752m-273.76-64.686c-5.1392 4.2437-6.6187 11.775-6.636 18.043 2.695-6.225 5.1522-11.42 6.636-18.043m-7.4016-5.1522c-18.576 35.421-34.179 77.014-36.554 117.35-1.6828 28.677 43.324 77.438 67.701 52.491-33.232-9.7376-60.217-29.723-55.004-67.294 2.535-18.225 8.0073-36.121 14.366-53.334 6.5408-17.719 7.2589-30.537 9.4911-49.212" fill="#800000"/>
   <path transform="matrix(.21198 0 0 .21198 1814.5 47.217)" d="m936.46 275.97c0 94.534-163.68 86.285-222.06 75.574-31.904-5.8443-78.165-20.202-78.165-60.065 0-27.21 10.776-55.675 21.098-80.38 25.705-61.476 78.498-143 156.13-131.45 84.221 12.537 122.99 122.55 122.99 196.32" fill="#a00"/>
   <path transform="matrix(.21198 0 0 .21198 1814.5 47.217)" d="m799.2 78.611c-73.528 0-147.12 91.878-142.66 161.91 2.2754 35.762 9.6684 78.641 44.073 97.692 45.266 18.606 91.013 22.235 139.47 16.633 31.199-3.6035 70.941-10.806 91.826-36.969 19.501-24.437 9.0542-64.439 1.9337-91.757-16.196-62.103-59.914-147.51-134.64-147.51" fill="#800000"/>
   <path transform="matrix(.21198 0 0 .21198 1814.5 47.217)" d="m980.98 513c0 101.05-96.801 136.79-183.67 134.62-96.174-2.4225-180.96-52.171-168.58-158.46 10.702-91.878 82.893-197.48 185.68-191.56 104.71 6.0433 166.58 120.81 166.58 215.39" fill="#00d4aa"/>
   <path transform="matrix(.21198 0 0 .21198 1814.5 47.217)" d="m806.47 301.34c-100.01 0-167.34 105.54-174.57 195.69-8.3231 103.87 82.495 146.69 173.85 146.69-82.989 0-172.48-37.116-168.42-133.02 3.8933-92.09 75.946-164.84 169-164.84 88.777 0 156.85 65.295 163.95 153.21 8.1154 100.53-74.272 144.66-164.47 144.66 88.34 0 174.83-40.966 171.03-140.72-3.504-92.038-67.558-201.66-170.37-201.66" fill="#00d4aa"/>
   <path transform="matrix(.21198 0 0 .21198 1814.5 47.217)" d="m677.58 362.94c-54.913 68.683-86.229 194.53-2.0894 253.8 70.772 49.835 203.25 50.959 269.08-8.6518 69.885-63.245 39.253-184.67-13.004-249.04-69.92-86.112-185.37-81.764-253.98 3.8933m-47.053 153.18c0-100.43 76.785-227.48 190.91-214.58 99.738 11.265 156.24 120.2 156.24 211.46 0 91.407-81.6 129.13-162.55 131.21-82.893 2.1197-184.6-29.027-184.6-128.09"/>
   <path transform="matrix(.21198 0 0 .21198 1814.5 47.217)" d="m806.16 596.14c-58.941 0-130.12-8.8249-173.1-53.944 15.885 79.035 102.81 102.14 172.83 102.14 69.942 0 152.23-23.403 168.73-101.14-41.732 44.384-110.88 52.949-168.46 52.949" fill="#052"/>
   <path transform="matrix(.21198 0 0 .21198 1814.5 47.217)" d="m806.47 299.33c93.998 0.0649 155.76 95.261 165.36 179.9 11.048 97.528-57.556 150-149.24 154.8-82.396 4.3259-187.78-25.956-187.78-125.41 0-91.26 62.834-202.09 162.83-208.98-100.17 6.7398-164.6 115.24-168.29 206.86-4.2005 104.21 96.096 141.28 185 139.08 92.06-2.2927 171.48-49.878 164.03-150.84-6.6879-90.511-71.14-195.41-171.91-195.41"/>
   <path transform="matrix(.21198 0 0 .21198 1814.5 47.217)" d="m744.57 332.27c1.142 2.111 1.3237 3.119 3.3526 1.5141-1.1204-0.50613-2.2322-1.0079-3.3526-1.5141m128.29-2.5004c-1.9553 0.95603-3.9063 1.9164-5.8616 2.8681 4.313 4.5422 4.4124 2.4355 5.8616-2.8681" fill="url(#n)"/>
   <path transform="matrix(.21198 0 0 .21198 1814.5 47.217)" d="m883.41 340.81c0 20.788-25.943 75.428-67.59 75.428s-83.227-54.64-83.227-75.428 33.762-37.64 75.409-37.64 75.409 16.852 75.409 37.64z" fill="#fcd095" stroke="#000" stroke-linejoin="round" stroke-width="5.9862"/>
   <path transform="matrix(.21198 0 0 .21198 1814.5 47.217)" d="m943.54 210.29c0 74.12-64.746 131.94-137.26 131.94-72.507 0-137.19-57.864-137.19-131.94 0-74.055 64.707-131.94 137.19-131.94 72.494-0.0043 137.26 57.855 137.26 131.94" fill="#fcd095"/>
   <path transform="matrix(.21198 0 0 .21198 1814.5 47.217)" d="m714.31 160.84c30.554-35.901 83.382-45.219 127.57-34.157 50.717 12.705 77.001 52.785 84.723 102.49 10.802-71.94-49.19-134.27-120.33-134.27-71.209 0-131.02 62.406-120.26 134.34 3.7462-24.095 12.221-49.618 28.292-68.401" fill="#ffe2ae"/>
   <path transform="matrix(.21198 0 0 .21198 1814.5 47.217)" d="m938.6 194.45c-7.6482 58.599-39.712 103.36-100.98 114.06-74.436 12.995-151.17-33.439-163.26-111.5-0.20332 4.5595 0 9.0931 0.61428 13.609-0.61428-3.8111-1.1118-7.6266-1.4924-11.472-7.9424 83.019 69.457 148.11 149.5 138.46 70.128-8.4702 124.5-71.923 115.61-143.15" fill="#fabb78"/>
   <path transform="matrix(.21198 0 0 .21198 1814.5 47.217)" d="m933.58 171.82c25.341 77.369-32.003 156.29-110.59 165.78-43.532 5.2517-88.136-10.698-117.6-43.372-14.397-15.971-24.705-35.477-29.438-56.471-2.9027-12.852-9.6468-48.26 0.79597-58.846-18.775-0.72242-11.105 46.499-8.7254 58.041 4.8104 23.356 16.118 45.072 32.163 62.683 22.088 24.242 52.4 40.028 84.849 44.717 42.632 6.1558 86.929-6.9301 118.68-36.139 31.982-29.429 65.412-99.777 29.866-136.39m7.7996-0.4672c0.0908 1.38 1.2935 4.248 0 0" fill="url(#h)"/>
   <path transform="matrix(.21198 0 0 .21198 1814.5 47.217)" d="m904.01 97.498c23.321 23.918 36.338 44.579 37.709 79.887-0.0692-1.9856-26.436-24.749-30.424-28.019-9.543-7.8256-27.651 12.999-38.393 17.524-43.83 18.45-80.839 5.1608-125.31 5.4204-18.71 0.10814-29.131 13.168-45.695 16.352-10.339 1.9856-18.692-13.631-30.684-10.633-14.202 3.5386-9.5906 29.196-7.4492 39.266-35.974-129.58 155.14-206.87 240.25-119.8" fill="#a00"/>
   <path transform="matrix(.21198 0 0 .21198 1814.5 47.217)" d="m939.58 157.07c0.49316 4.1615 0.83923 8.3404 1.0339 12.524-0.0216-0.48451-21.755-19.873-24.234-22.317-14.946-14.712-15.634-4.5638-30.273 4.5119-32.219 19.986-73.584 22.676-109.97 16.179-16.123-2.8811-33.176-5.8054-49.155-0.43692-9.0974 3.0584-22.447 17.55-32.466 11.641-24.234-14.28-36.55-1.1334-32.38 25.333-4.075-32.816 18.498-21.413 36.796-16.002 8.2668 2.4485 21.885-10.72 29.2-13.181 19.211-6.4802 39.565-1.0426 58.815 2.0635 32.739 5.2906 71.758-0.17736 100.31-17.823 8.388-5.1868 14.397-18.117 24.018-10.205 4.0015 3.2877 30.385 26.012 30.454 28.019-0.25955-6.809-0.969-13.583-2.1413-20.306" fill="#800000"/>
   <path transform="matrix(.21198 0 0 .21198 1814.5 47.217)" d="m676.94 178.92c-1.1118 4.2394-3.8371 15.872-3.4478 20.224 0.28119-2.8465 2.0548-17.663 14.28-13.834 1.3627-5.5761-6.411-6.2639-10.832-6.3894m217.51-23.382c-35.473 23.879-79.774 26.682-120.62 19.575-16.551-2.8811-34.088-5.1262-50.003 1.8774-5.5415 3.2098-15.833 11.788-23.139 11.788-2.9676 0.44989-2.2278-2.2019-3.6294 1.142 11.485 7.1983 16.274 1.527 27.184-4.8104 18.147-10.529 39.176-7.2892 58.75-3.7938 37.999 6.7874 84.338 3.7895 116.23-20.604-1.5876-1.7304-3.1796-3.4564-4.7715-5.1738m12.701-9.0715c4.0923 5.8184 8.4399 7.0426 13.761 12.043-4.0966-4.5855-8.6778-8.5956-13.761-12.043" fill="#f2bd7e"/>
   <path transform="matrix(.21198 0 0 .21198 1814.5 47.217)" d="m688.47 182.56c-1.6352 6.039 2.5393 3.6121 8.5826 7.3584 1.9337-4.6201-5.1435-5.468-8.5826-7.3584m217.4-36.671c-3.4348 3.664-7.2459 6.8739-11.433 9.6511 11.892 11.97 5.1781-5.2257 15.867-4.3389-0.64024-2.7513-2.1154-4.5206-4.4341-5.3122" fill="#f3c58a"/>
   <path transform="matrix(.21198 0 0 .21198 1814.5 47.217)" d="m674 194.45c-0.70513 5.5891 0.12977 10.62 0.97333 16.162-0.64456-5.4117-0.26388-10.789-0.97333-16.162" fill="#f1b26f"/>
   <path transform="matrix(.21198 0 0 .21198 1814.5 47.217)" d="m676.75 178.91c-4.6633 4.7239-3.7938 13.938-3.3007 19.761 0.0389-0.48018 2.535-19.761 3.3007-19.761" fill="url(#i)"/>
   <path transform="matrix(.21198 0 0 .21198 1814.5 47.217)" d="m701.36 188.75c-0.90411 0.0476-0.90411 0.0476 0 0m5.0527-1.9423c-1.3151 0.69647-1.3151 0.69647 0 0m45.331-14.418c7.4233 0.42826 14.782 1.3367 22.084 2.7296-7.3022-1.3929-14.665-2.3014-22.084-2.7296m-3.677-0.0779c-2.5047 0.0346-2.5047 0.0346 0 0m171.95-21.361c5.468 5.6194 10.59 11.632 16.378 16.94-5.4204-5.6713-10.689-11.529-16.378-16.94" fill="#f3bc35"/>
   <path transform="matrix(.21198 0 0 .21198 1814.5 47.217)" d="m945.16 162.65c0.43259 3.6987 4.6677 17.953-3.1363 10.858-0.86951 5.23 0.7008 8.6389 4.6936 10.226 1.9986 0-1.3627-19.917-1.5573-21.085" fill="#f3d4b2"/>
   <path transform="matrix(.21198 0 0 .21198 1814.5 47.217)" d="m941.49 173.01c0.0779 1.4578 0.15574 2.9243 0.22928 4.3735-0.16439 0.28118-0.33743 0.56237-0.50614 0.8349-1.194-0.80895-2.3792-1.6136-3.5646-2.4139 13.968 14.652 6.1818-0.54507 3.8414-2.7946" fill="url(#j)"/>
   <path transform="matrix(.21198 0 0 .21198 1814.5 47.217)" d="m941.71 177.39c-0.67917 1.1118-0.67917 1.1118 0 0m-0.2336-4.3822c0.0822 1.4665 0.16438 2.92 0.23792 4.3822 0.88249-1.8861 0.8003-3.3439-0.23792-4.3822" fill="#f3bc35"/>
   <path transform="matrix(.21198 0 0 .21198 1814.5 47.217)" d="m682.21 176.77c-1.8255 0.70945-3.6424 1.4276-5.468 2.1413 12.666 0 18.883 14.09 31.177 7.0556-8.4702 3.1882-16.793-9.1969-25.709-9.1969m200.12-14.366c-22.296 10.655-47.754 14.591-72.286 14.591-28.759 0-58.781-15.37-86.216-4e-3 22.633-9.9669 47.239-1.3756 70.357 1.4362 28.988 3.5343 62.38-2.1846 88.145-16.023m26.635-19.008c-1.3756 0.35472-2.4052 1.181-3.0844 2.4917 4.8191 1.7174 35.771 29.684 35.836 31.493-1.4924-7.7002-22.694-33.984-32.752-33.984" fill="#800000"/>
   <path transform="matrix(.21198 0 0 .21198 1814.5 47.217)" d="m940.68 161.52c0.10815 0.89979 1.9726 13.198 0.59698 13.354-12.169 1.3713-22.534-32.025-36.649-32.592-4.8796-0.19467-25.173 18.519-31.731 21.279-21.106 8.8941-44.479 12.333-67.272 12.333-19.579 0-38.423-7.021-58.037-6.9172-14.661 0.0865-37.116 19.605-48.667 16.196-7.2156-2.1284-19.138-15.422-26.773-7.2156-6.8306 7.3454-2.9286 22.923-1.579 31.575-0.9344-7.6396-3.7462-23.723 4.3605-28.824 9.9237-6.251 17.775 9.7117 26.95 7.9424 16.564-3.1969 26.994-16.24 45.708-16.343 19.614-0.10815 38.457 6.9085 58.037 6.9085 31.778 0 75.353-4.8191 97.251-31.255 6.3375-7.6352 31.571 31.393 38.397 30.256 1.7866-0.29849-0.34607-15.353-0.59265-16.698" fill="#800000"/>
   <path transform="matrix(.21198 0 0 .21198 1814.5 47.217)" d="m885.11 135.76c0 42.026-154.22 38.258-154.22 2.7772 28.166 6.1212 59.14 11.195 87.937 8.4226 7.6785-0.73973 66.282-21.534 66.282-11.2" fill="#800000"/>
   <path transform="matrix(.21198 0 0 .21198 1814.5 47.217)" d="m664.33 198.44c0-88.863 92.904-144.41 174.37-126.14 81.362 18.251 134.41 110.35 98.575 189.75 48.77-87.756-21.902-196.32-114.84-207.53-47.97-5.7924-96.693 13.151-128.52 49.428-32.479 37.013-48.061 100.31-22.927 145.52-7.181-15.902-6.6662-33.984-6.6662-51.037" fill="#800000"/>
   <rect transform="matrix(.30422 0 0 .30422 1867.5 -147.1)" x="533.29" y="685.09" width="298" height="209.25" color="#000000" fill="url(#k)"/>
   <path transform="matrix(.30422 0 0 .30422 1867.5 -147.1)" d="m528.67 893.17c-4.7199 0-8.6562 2.5445-8.6562 5.5714s3.9363 5.5514 8.6562 5.5514h307.25c4.7199 0 8.6562-2.5244 8.6562-5.5514s-3.9363-5.5714-8.6562-5.5714h-307.25z" color="#000000" fill="url(#l)" style="block-progression:tb;text-decoration-line:none;text-indent:0;text-transform:none"/>
   <path transform="matrix(.30422 0 0 .30422 1867.5 -147.1)" d="m532.8 681.89a5.0005 3.2069 0 0 0 -4.5 3.2066v209.25a5.0005 3.2069 0 0 0 5 3.2066h298a5.0005 3.2069 0 0 0 5 -3.2066v-209.25a5.0005 3.2069 0 0 0 -5 -3.2066h-298a5.0005 3.2069 0 0 0 -0.5 0zm5.5 6.4132h288v202.84h-288v-202.84z" color="#000000" fill="url(#m)" style="block-progression:tb;text-decoration-line:none;text-indent:0;text-transform:none"/>
   <path transform="matrix(.30422 0 0 .30422 1867.5 -147.1)" d="m667.45 894.97-5.4827-2.0885-24.567 0.12192-0.30817 4.2027 26.267-0.14449z" color="#000000" fill="#eaeaea" stroke="#eaeaea" stroke-linecap="round" stroke-linejoin="round" stroke-width="1.2012"/>
   <path transform="matrix(.30422 0 0 .30422 1867.5 -147.1)" d="m640.51 887.43-24.274 6.3955 2.1275 3.285 24.35-6.5077c-1.2248-1.7767-1.2293-1.7546-2.2043-3.1727z" color="#000000" fill="#eaeaea" stroke="#eaeaea" stroke-linecap="round" stroke-linejoin="round" stroke-width="1.1115"/>
   <g transform="matrix(.30422 0 0 .30422 1867.5 -147.1)" fill="#fff" stroke-width="1px">
    <path d="m577.51 816.96q-0.48799 1.1929-1.0302 1.8978-0.488 0.65065-1.5724 0.65065-0.97598 0-1.6809-0.92176-0.70488-0.92177-0.70488-2.2231 0-1.2471 0.54221-2.3315 0.59644-1.1386 1.5724-1.952 0.97598-0.81332 2.3315-1.2471 1.3555-0.48799 2.928-0.48799 2.2773 0 3.9582 0.81332 1.6809 0.7591 2.7653 2.0604 1.1386 1.2471 1.6809 2.928 0.54222 1.6266 0.54222 3.416 0 1.7893-0.59644 3.4702-0.54221 1.6809-1.5182 3.3617-1.1929 2.0604-2.6026 4.2293-1.3555 2.1689-2.8195 4.3377-1.4098 2.1689-2.928 4.2835-1.464 2.1146-2.8737 4.0124 3.6871-0.21688 7.2657-0.43377 3.6328-0.2711 7.3741-0.2711 1.464 0 2.2773 0.92176 0.81332 0.86754 0.81332 1.7893t-0.7591 1.8435q-0.70488 0.86754-2.1689 0.86754-4.2835 0-8.567 0.37955-4.2835 0.43377-8.567 0.43377-0.488 0-0.97599-0.0542-0.48799 0-0.97599-0.0542-0.48799 0.10844-0.81332 0.10844-0.27111 0-0.7591 0-0.97598 0-1.7351-0.70488-0.70487-0.70487-0.70487-2.0604 0-0.81332 0.37955-1.5182 0.37955-0.7591 0.92176-1.464 0.59644-0.70488 1.2471-1.3555 0.65066-0.65066 1.1387-1.3013 3.2533-4.1751 6.0186-8.1332 2.7653-3.9582 5.2595-8.6212 0.10844-0.21688 0.32533-0.59643 0.27111-0.43377 0.48799-0.92177 0.27111-0.48799 0.43377-0.97598 0.16267-0.54222 0.16267-1.0302 0-1.952-0.81332-3.2533-0.81333-1.3555-2.7653-1.3555-0.65066 0-1.464 0.43377-0.7591 0.43377-1.0302 1.0302z"/>
    <path d="m614.16 822.21q0-1.5182 0.7591-2.3315 0.81333-0.81332 1.7893-0.81332 0.7591 0 1.464 0.488 0.70488 0.43377 1.2471 1.3555 0.59643 1.7351 2.0062 4.3919 1.464 2.6568 3.3617 5.5306 4.3919-5.2053 7.9706-8.0248 3.6328-2.8737 6.1812-2.8737 1.2471 0 2.0062 0.7591t0.7591 1.7893q0 0.7591-0.488 1.5182-0.48799 0.7591-1.5724 1.1929-1.6266 0.65065-3.1991 1.7893-1.5724 1.0844-3.0364 2.4942-1.4098 1.3555-2.7653 2.928t-2.5484 3.0906q2.1146 2.8195 4.175 5.0968 2.1146 2.2231 3.6871 3.1448 1.1929 1.1929 1.1929 2.4942 0 0.97599-0.7591 1.7351-0.70487 0.70488-1.952 0.70488-0.92176 0-2.1146-0.81332-1.1929-0.81332-2.5484-2.0604-1.3013-1.3013-2.6569-2.8737-1.3013-1.5724-2.4942-3.0364-1.4098 1.7351-2.44 3.5786-0.97599 1.8435-0.97599 4.1208 0.43378 0.43377 0.59644 0.92177 0.21689 0.48799 0.21689 0.97598 0 0.97599-0.7591 1.7351-0.70488 0.7591-2.0062 0.7591-0.97598 0-1.6809-0.48799-0.65066-0.43378-1.0844-1.1386-0.37955-0.70488-0.59644-1.5724-0.16266-0.86754-0.16266-1.7351 0-1.6809 0.32533-3.0364 0.37955-1.3555 1.0302-2.6568 0.70488-1.3013 1.7351-2.7111 1.0302-1.464 2.44-3.3075-2.44-3.6328-4.3919-7.103-1.8978-3.5244-2.7111-6.0186z"/>
    <path d="m672.18 816.96q-0.48799 1.1929-1.0302 1.8978-0.488 0.65065-1.5724 0.65065-0.97598 0-1.6809-0.92176-0.70488-0.92177-0.70488-2.2231 0-1.2471 0.54221-2.3315 0.59644-1.1386 1.5724-1.952 0.97598-0.81332 2.3315-1.2471 1.3555-0.48799 2.928-0.48799 2.2773 0 3.9582 0.81332 1.6809 0.7591 2.7653 2.0604 1.1386 1.2471 1.6809 2.928 0.54222 1.6266 0.54222 3.416 0 1.7893-0.59644 3.4702-0.54221 1.6809-1.5182 3.3617-1.1929 2.0604-2.6026 4.2293-1.3555 2.1689-2.8195 4.3377-1.4098 2.1689-2.928 4.2835-1.464 2.1146-2.8737 4.0124 3.6871-0.21688 7.2657-0.43377 3.6328-0.2711 7.3741-0.2711 1.464 0 2.2773 0.92176 0.81332 0.86754 0.81332 1.7893t-0.7591 1.8435q-0.70488 0.86754-2.1689 0.86754-4.2835 0-8.567 0.37955-4.2835 0.43377-8.567 0.43377-0.488 0-0.97599-0.0542-0.48799 0-0.97599-0.0542-0.48799 0.10844-0.81332 0.10844-0.27111 0-0.7591 0-0.97599 0-1.7351-0.70488-0.70487-0.70487-0.70487-2.0604 0-0.81332 0.37955-1.5182 0.37955-0.7591 0.92176-1.464 0.59644-0.70488 1.2471-1.3555 0.65066-0.65066 1.1386-1.3013 3.2533-4.1751 6.0186-8.1332 2.7653-3.9582 5.2595-8.6212 0.10844-0.21688 0.32533-0.59643 0.2711-0.43377 0.48799-0.92177 0.27111-0.48799 0.43377-0.97598 0.16267-0.54222 0.16267-1.0302 0-1.952-0.81333-3.2533-0.81332-1.3555-2.7653-1.3555-0.65066 0-1.464 0.43377-0.7591 0.43377-1.0302 1.0302z"/>
    <path d="m711.11 838.86q-1.2471-0.27111-1.8435-1.0302-0.54222-0.81332-0.54222-1.6809 0-0.86754 0.54222-1.6266 0.59643-0.7591 1.8435-1.0844 5.4764-0.0542 10.899-0.27111 5.4222-0.2711 10.899-0.32533 1.464 0.16267 2.1689 0.97599 0.7591 0.81332 0.7591 1.7351 0 0.92176-0.7591 1.7893-0.70488 0.81333-2.1689 0.92177-5.4764 0.0542-10.899 0.32533-5.4222 0.21688-10.899 0.27111zm-0.27111-9.9768q-1.2471-0.27111-1.8435-1.0302-0.54222-0.81332-0.54222-1.6809 0-0.86754 0.54222-1.6266 0.59643-0.7591 1.8435-1.0844 5.4764-0.10844 10.844-0.48799 5.3679-0.37955 10.844-0.488 1.464 0.16267 2.1689 0.97599 0.7591 0.81332 0.7591 1.7351 0 0.92176-0.7591 1.7893-0.70488 0.81332-2.1689 0.92176-5.4764 0.10844-10.844 0.48799-5.3679 0.37955-10.844 0.488z"/>
    <path d="m775.14 821.02q0-1.5724 0.81332-2.3315 0.81332-0.81332 1.8435-0.81332 0.92176 0 1.7893 0.7591 0.92176 0.7591 0.92176 2.1689v7.4826q2.1689-0.0542 4.2835-0.0542 2.1689 0 4.3377 0 1.5724 0 2.2231 0.92176 0.70488 0.86755 0.70488 1.7893 0 0.92177-0.7591 1.8435-0.70488 0.86755-2.1689 0.86755h-8.5128q0.16267 3.0364 0.16267 5.9101 0 1.2471-0.0542 2.1146 0 0.86755 0 1.7351 0 0.81332-0.0542 1.7351 0 0.92176 0 2.1688 0 1.4098-0.92177 2.1689-0.86754 0.7591-1.7893 0.7591-1.0302 0-1.8435-0.81332-0.81332-0.7591-0.81332-2.3315 0-1.4098 0-2.44 0.0542-1.0302 0.0542-1.952 0.0542-0.97599 0.0542-2.0062 0.0542-1.0302 0.0542-2.3858 0-1.1929 0-2.3315t-0.10845-2.3315h-8.079q-0.70487 0-1.3555 0.0542t-1.3555 0.0542q-1.5724 0-2.6568-0.32533-1.0302-0.32533-1.6809-0.92177-0.59643-0.59643-0.86754-1.464-0.21688-0.86755-0.21688-1.952 0-0.86754 0.10844-1.8978 0.16266-1.0302 0.32533-2.0604 0.16266-1.0302 0.32533-2.0062 0.21688-0.97598 0.37955-1.7351 0.43377-2.44 0.86754-4.8257t0.7591-4.8257q0.16266-1.2471 1.0302-1.7351 0.92176-0.54222 1.7351-0.54222 0.92177 0 1.7893 0.70488 0.86755 0.65066 0.86755 2.0062 0 0.43377-0.21689 1.7351-0.16266 1.3013-0.43377 2.8195-0.10844 0.65066-0.43377 2.2773t-0.65066 3.4702-0.59644 3.5244q-0.2711 1.6266-0.2711 2.3315 2.6568 0 5.2595 0t5.2053-0.0542q-0.0542-1.7893-0.0542-3.5786 0-1.8435 0-3.6871z"/>
   </g>
   <g transform="matrix(.30422 0 0 .30422 1867.5 -147.1)" fill="#fff" stroke-width="1px">
    <path d="m572.74 747.91q-1.2471 1.5182-2.4942 1.5182-1.0302 0-1.8978-0.65066-0.81333-0.65065-0.81333-2.1688 0-0.59644 0.37955-1.3013 0.43378-0.7591 0.86755-1.1929 2.44-2.7111 4.6088-5.5306 2.2231-2.8195 4.3377-5.639 2.1689-2.8737 4.3377-5.7475 2.1688-2.928 4.4462-5.8559 0.43377-0.59643 1.3013-1.0302 0.92177-0.488 1.7351-0.488 2.2773 0 2.9822 1.464 0.7591 1.464 0.7591 5.0968 0 3.1991-0.10844 6.7235-0.0542 3.4702-0.16267 7.103-0.0542 3.6328-0.10844 7.3199-0.0542 3.6871-0.0542 7.2114 0 1.5724-0.92177 2.2773-0.92176 0.70488-1.8435 0.70488-1.0302 0-1.8435-0.81333-0.81332-0.7591-0.81332-2.3315 0-4.8257 0.21689-9.5972 0.21688-4.8257 0.21688-9.8683 0-3.2533-0.16266-6.5066-3.416 4.8257-7.1572 9.5972-3.7413 4.7715-7.8079 9.7056z"/>
    <path d="m626.47 728.55q0-1.5724 0.81332-2.3315 0.81333-0.81333 1.8435-0.81333 0.92177 0 1.7351 0.65066t1.0302 2.0604q0.10844 1.952 0.37955 3.8497t0.37955 3.7955q2.0604 0.10845 4.0666 0.21689t3.4702 0.16266q1.464 0.16267 2.1689 0.97599 0.7591 0.81332 0.7591 1.7351 0 0.92176-0.7591 1.7893-0.70488 0.81333-2.1689 0.92177l-7.5368-0.21689q-0.10844 1.7351-0.21689 3.4702-0.0542 1.6809-0.0542 3.416-0.21688 1.4098-1.0302 2.0604-0.81332 0.65066-1.7351 0.65066-1.0302 0-1.8435-0.7591-0.81333-0.81332-0.81333-2.3857 0-1.6809 0.10845-3.3075 0.10844-1.6266 0.16266-3.3075-0.7591-0.0542-1.5724-0.0542-0.81332-0.0542-1.6266-0.0542-1.0844 0-2.2231 0.10844-1.0844 0.10844-2.1146 0.48799h-0.32533q-1.4098 0-2.1689-0.7591-0.7591-0.81332-0.7591-1.8435 0-0.70488 0.32533-1.3555 0.37955-0.65066 1.1929-1.1929 1.6266-0.54221 3.7413-0.7591 2.1146-0.21688 4.5546-0.21688h0.97598v-0.21689q-0.10844-1.7351-0.37955-3.3617-0.27111-1.6809-0.37955-3.416z"/>
    <path d="m669.79 747.91q-1.2471 1.5182-2.4942 1.5182-1.0302 0-1.8978-0.65066-0.81332-0.65065-0.81332-2.1688 0-0.59644 0.37955-1.3013 0.43377-0.7591 0.86754-1.1929 2.44-2.7111 4.6088-5.5306 2.2231-2.8195 4.3377-5.639 2.1689-2.8737 4.3377-5.7475 2.1689-2.928 4.4462-5.8559 0.43377-0.59643 1.3013-1.0302 0.92177-0.488 1.7351-0.488 2.2773 0 2.9822 1.464 0.7591 1.464 0.7591 5.0968 0 3.1991-0.10844 6.7235-0.0542 3.4702-0.16267 7.103-0.0542 3.6328-0.10844 7.3199-0.0542 3.6871-0.0542 7.2114 0 1.5724-0.92177 2.2773-0.92176 0.70488-1.8435 0.70488-1.0302 0-1.8435-0.81333-0.81332-0.7591-0.81332-2.3315 0-4.8257 0.21689-9.5972 0.21688-4.8257 0.21688-9.8683 0-3.2533-0.16266-6.5066-3.416 4.8257-7.1572 9.5972t-7.8079 9.7056z"/>
    <path d="m715.01 746.82q-1.2471-0.27111-1.8435-1.0302-0.54221-0.81332-0.54221-1.6809 0-0.86755 0.54221-1.6266 0.59644-0.7591 1.8435-1.0844 5.4764-0.0542 10.899-0.27111 5.4221-0.27111 10.899-0.32533 1.464 0.16266 2.1689 0.97599 0.7591 0.81332 0.7591 1.7351 0 0.92177-0.7591 1.7893-0.70488 0.81332-2.1689 0.92177-5.4764 0.0542-10.899 0.32532-5.4222 0.21689-10.899 0.27111zm-0.27111-9.9768q-1.2471-0.27111-1.8435-1.0302-0.54221-0.81332-0.54221-1.6809t0.54221-1.6266q0.59644-0.75911 1.8435-1.0844 5.4764-0.10845 10.844-0.488 5.3679-0.37955 10.844-0.48799 1.464 0.16266 2.1689 0.97599 0.7591 0.81332 0.7591 1.7351 0 0.92177-0.7591 1.7893-0.70488 0.81332-2.1689 0.92177-5.4764 0.10844-10.844 0.48799-5.3679 0.37955-10.844 0.48799z"/>
    <path d="m771.62 724.92q-0.488 1.1929-1.0302 1.8978-0.48799 0.65066-1.5724 0.65066-0.97599 0-1.6809-0.92177-0.70488-0.92176-0.70488-2.2231 0-1.2471 0.54222-2.3315 0.59643-1.1386 1.5724-1.952t2.3315-1.2471q1.3555-0.488 2.928-0.488 2.2773 0 3.9582 0.81332 1.6809 0.7591 2.7653 2.0604 1.1386 1.2471 1.6809 2.928 0.54221 1.6266 0.54221 3.416t-0.59643 3.4702q-0.54222 1.6809-1.5182 3.3617-1.1929 2.0604-2.6026 4.2293-1.3555 2.1689-2.8195 4.3377-1.4098 2.1688-2.928 4.2835-1.464 2.1146-2.8737 4.0124 3.6871-0.21689 7.2657-0.43377 3.6328-0.27111 7.3741-0.27111 1.464 0 2.2773 0.92177 0.81332 0.86754 0.81332 1.7893 0 0.92177-0.7591 1.8435-0.70488 0.86755-2.1689 0.86755-4.2835 0-8.567 0.37955-4.2835 0.43377-8.567 0.43377-0.48799 0-0.97599-0.0542-0.48799 0-0.97598-0.0542-0.488 0.10844-0.81332 0.10844-0.27111 0-0.75911 0-0.97598 0-1.7351-0.70488-0.70488-0.70488-0.70488-2.0604 0-0.81332 0.37955-1.5182 0.37955-0.7591 0.92176-1.464 0.59644-0.70488 1.2471-1.3555 0.65066-0.65066 1.1386-1.3013 3.2533-4.175 6.0186-8.1332t5.2595-8.6212q0.10845-0.21689 0.32533-0.59644 0.27111-0.43377 0.48799-0.92176 0.27111-0.48799 0.43378-0.97599 0.16266-0.54221 0.16266-1.0302 0-1.952-0.81332-3.2533-0.81332-1.3555-2.7653-1.3555-0.65065 0-1.464 0.43377-0.7591 0.43377-1.0302 1.0302z"/>
   </g>
   <path d="m2001.4 163.04 47.438-46.217 1.6395 1.7736-45.396 47.991z" fill="#d4aa00" stroke="#1a1a1a" stroke-width=".50973"/>
  </g>
 </g>
</svg>
