<?xml version="1.0" encoding="UTF-8"?>
<svg viewBox="0 0 744.09448819 1052.3622047" xmlns="http://www.w3.org/2000/svg">
 <path d="m488.52 565.05-129.2-61.668 53.815 132.66-59.332-130.29-44.048 136.22 38.296-137.94-86.094 55.859 82.798-60.88-141.8-19.725 142.5 13.76-95.943-106.25 100.31 102.14-5.1971-143.07 11.193 142.72 157.21-152.1-152.39 155.69 139.99-29.961-138.61 35.807 126.5 67.032z" fill="#ff0"/>
 <path d="m335.66 596.32 19.481-104.13-100.03 45.863 97.366-50.85-99.494-45.834 101.93 40.717-24.04-103.02 29.742 101.62 52.107-68.118-47.436 71.498 112.38 4.9581-112.26 0.64961 56.121 69.756-60.639-66.143-25.238 103.02z" fill="#00f"/>
 <path d="m290.81 573.11-22.465-13.529-3.6833 25.158 1.3395-25.484-18.998-4.5674 19.368 1.9976-13.558-25.337 15.902 25.662 22.095 16.099z" fill="#ff0"/>
 <path d="m336.43 646.13-23.965-11.463-0.28921 28.45-2.0667-28.442-19.353-2.0788 19.376-0.82617-16.747-25.942 19.103 25.934 23.942 14.368z" fill="#ff0"/>
 <path d="m240.26 419.51 12.422-25.869-32.924 0.60075 32.833-3.1076 1.7264-20.661 1.6352 20.593 29.425-18.65-29.334 21.156-15.783 25.937z" fill="#ff0"/>
 <path d="m462.04 435.46 32.87 24.795 9.3332-42.478-5.7473 43.218 28.788 9.2818-29.731-4.9424 17.364 44.157-20.949-44.898-31.926-29.134z" fill="#ff0"/>
 <path d="m467.69 544.09 13.244 14.828 27.217-37.845-25.526 38.827 19.453-4.5225-19.969 6.8776 0.07895 23.017-2.0887-22.544-19.706 38.785 18.98-40.847-11.683-16.576z" fill="#ff0"/>
 <path d="m360.34 507.55 2.8584 43.068-9.4486-42.074-15.149 40.674 8.7468-42.407-26.392 39.536 21.285-43.698-50.249 25.643 47.32-31.513-43.725-1.2528 43.48-5.3103-39.245-18.705 41.727 12.583-28.732-25.013 33.512 20.392-20.579-55.956 26.83 53.633 6.2826-42.806 0.35875 43.185 23.353-36.763-17.47 39.777 49.651-27.679-45.543 32.807 43.128-7.7509-41.505 14.106 64.381 24.295-65.525-17.811 58.467 50.684-62.179-45.192 24.517 33.456-30.155-29.907z" fill="#008000"/>
 <path transform="matrix(.88318 .69759 -.70002 .88626 456.55 346.95)" d="m20.284 166.64 14.69 34.326-20.98-30.829-6.6357 36.92-1.5346-37.146-24.496 27.675 18.346-31.998-35.712 9.8541 33.243-17.5-35.183-10.749 36.586 3.9344-23.444-28.846 29.225 22.796-4.7858-36.95 12.337 35.438 16.233-33.713-9.2446 36.594 31.678-19.024-27.52 24.597 37.847 1.4334-36.713 6.3886 30.552 21.365-34.488-14.567z" fill="#f00"/>
 <path d="m373.21 456.01-10.046-12.331-22.207 24.889 20.904-25.793-15.357 1.2267 15.816-2.9026 0.46448-16.931 1.1223 16.8 16.339-26.39-15.817 27.985 8.7817 13.447z" fill="#ff0"/>
 <path d="m402.5 492 2.091 10.995 26.509-8.7017-25.946 9.6882 11.623 4.1003-12.658-3.1851-7.4421 10.569 6.2394-10.99-22.895 11.515 23.186-12.691-0.70805-11.301z" fill="#ff0"/>
 <path d="m316.05 404.5 13.611-22.415-25.145-3.7745 25.479 1.4319 4.6362-18.981-2.0678 19.361 25.386-13.466-25.719 15.808-16.179 22.036z" fill="#00f"/>
 <path d="m330.9 529.83-20.312-10.374-1.8256 29.539-0.23393-29.382-16.8-0.92868 16.981-2.0872-13.202-25.855 15.262 25.698 20.131 13.389z" fill="#ff0"/>
 <path transform="translate(394.14 381.37)" d="m11.363 122.6-36.628-5.2277 28.779 23.86-32.383-17.902 18.316 31.005-23.495-25.713 0.78984 33.073-8.5443-35.441-11.725 37.171 9.9954-38.171-28.124 27.894 23.446-29.356-36.493 12.931 33.72-17.544-38.481-4.471 38.847-2.5089-31.127-18.587 30.723 14.291-19.365-28.392 26.972 19.844-8.9326-31.994 10.011 30.328 10.973-35.799-4.3056 36.764 23.805-29.512-19.19 36.063 33.701-20.833-27.921 24.644 37.117-4.5526-36.215 8.2503 35.735 9.8855z" fill="#ff0"/>
 <path transform="matrix(.70481 0 0 .74933 222.49 388.73)" d="m19.524 126.52-32.395-5.7183 16.486 29.21-22.54-23.374-1.1856 33.399 0.06438-38.197-19.444 32.676 16.569-29.696-29.169 2.2382 30.747-8.5533-27.311-16.71 25.045 15.824-8.2134-33.649 12.711 34.281 10.075-32.101-4.5266 34.661 26.789-16.119-27.707 15.842 34.006 5.9856z" fill="#ff0"/>
 <path transform="matrix(.56481 0 0 .66794 265.15 323.85)" d="m9.9818 195.61-23.134-14.323 3.3122 26.004-8.6047-28.626-10.859 30.115 11.171-30.77-25.846 13.242 26.181-10.733-26.027-8.8468 24.52 4.3601-15.796-24.128 18.001 22.568 2.0606-25.612-1.737 28.085 23.422-22.445-18.989 22.147 28.371-0.37015-32.802 1.0584 26.757 18.274z" fill="#00f"/>
 <path transform="matrix(-.22247 -.70675 .63763 -.20072 323.94 597.73)" d="m22.598 123.21 24.545-24.451-30.584 4.6312 28.942-7.7528-25.707-13.652 24.916 15.306-4.4446-26.959 9.4446 25.674 12.395-27.44-12.495 31.287 24.23-15.504-23.898 17.488 30.618 6.5755-28.235-6.4461 12.107 25.709-17.813-24.211-3.4563 27.617 5.1722-27.974-25.737 20.102z" fill="#f00"/>
 <path transform="translate(315.38 220.12)" d="m2.6279 254.42-15.307 5.2924 15.68 7.0365-16.516-5.448 9.8659 13.333-9.8422-12.315-1.4458 15.181 0.95917-15.091-10.889 9.096 11.359-11.419-18.332 0.6858 17.758-0.13777-14.116-9.8855 14.936 7.0263-5.3803-14.08 5.3923 14.424 6.2253-12.546-5.3247 13.981 14.976-5.1341z" fill="#f00"/>
 <path transform="matrix(.98437 -.17614 .17614 .98437 -28.63 424.17)" d="m403.51 131.87 13.779-16.722-14.626-8.8879 14.44 9.1452 7.2842-20.237-5.7319 21.02 21.189-1.0417-19.576 1.6891 6.7001 18.804-10.044-17.694-13.417 13.924z" fill="#f00"/>
 <path transform="matrix(.95838 -.28548 .28548 .95838 -151.03 373.66)" d="m414.47 312.16-9.9402-9.9392-7.6714 12.236 7.2304-14.641-14.115-1.8021 14.454 0.17318-2.7264-15.037 3.8246 14.679 12.966-5.093-13.137 6.8198 9.1139 12.605z" fill="#008000"/>
 <path transform="translate(302.11 325.82)" d="m53.482 275.63-17.768-6.3536-4.585 16.008 2.5891-15.041-16.973 0.47535 16.242-2.7124-6.2863-19.643 7.6991 17.649 15.914-10.442-13.069 9.9166 16.237 10.143z" fill="#00f"/>
 <path transform="translate(7.3966 315.46)" d="m437.42 210.07-11.054-9.0336-6.4232 12.941 4.1852-14.26-12.263-0.49404 14.904-0.70276-1.5595-12.812 2.6151 12.147 11.77-4.5725-11.836 7.6422 9.6621 9.1444z" fill="#008000"/>
 <path transform="translate(77.864 329.55)" d="m260.81 111.21-10.843-16.001-15.478 13.663 11.134-13.724-14.393-8.3677 17.16 6.7226 0.99522-18.348 0.08101 17.188 16.881-2.4203-17.261 4.7091 11.724 16.578z" fill="#008000"/>
</svg>
