<?xml version="1.0" encoding="UTF-8"?>
<!DOCTYPE svg  PUBLIC '-//W3C//DTD SVG 1.1//EN'  'http://www.w3.org/Graphics/SVG/1.1/DTD/svg11.dtd'>
<svg width="210mm" height="143.02mm" clip-rule="evenodd" fill-rule="evenodd" image-rendering="optimizeQuality" shape-rendering="geometricPrecision" text-rendering="geometricPrecision" version="1.1" viewBox="0 0 21000 14302" xml:space="preserve" xmlns="http://www.w3.org/2000/svg" xmlns:xlink="http://www.w3.org/1999/xlink">
 <defs>
  <style type="text/css">
    .fil0 {fill:url(#bc)}
    .fil11 {fill:url(#bd)}
    .fil2 {fill:url(#d)}
    .fil7 {fill:url(#at)}
    .fil4 {fill:url(#c)}
    .fil5 {fill:url(#ax)}
    .fil6 {fill:url(#ay)}
    .fil1 {fill:url(#az)}
    .fil3 {fill:url(#ba)}
    .fil8 {fill:url(#bb)}
    .fil12 {fill:url(#b)}
    .fil13 {fill:url(#be)}
    .fil15 {fill:url(#bf)}
    .fil14 {fill:url(#bg)}
    .fil16 {fill:url(#bh)}
    .fil17 {fill:url(#ag)}
    .fil19 {fill:url(#ah)}
    .fil18 {fill:url(#ai)}
    .fil10 {fill:url(#aj)}
    .fil9 {fill:url(#ak)}
    .fil21 {fill:url(#a)}
    .fil20 {fill:url(#al)}
    .fil27 {fill:url(#am)}
    .fil26 {fill:url(#an)}
    .fil23 {fill:url(#ao)}
    .fil24 {fill:url(#id25)}
    .fil30 {fill:url(#ap)}
    .fil28 {fill:url(#aq)}
    .fil22 {fill:url(#ar)}
    .fil31 {fill:url(#as)}
    .fil32 {fill:url(#au)}
    .fil25 {fill:url(#av)}
    .fil29 {fill:url(#aw)}
  </style>
  <linearGradient id="bc" x1="10513" x2="10513" y1="14302" y2="-141.31" gradientUnits="userSpaceOnUse">
   <stop stop-color="#393185" offset="0"/>
   <stop stop-color="#008DD2" offset="1"/>
  </linearGradient>
  <linearGradient id="bd" x1="19781" x2="19491" y1="11883" y2="11716" gradientUnits="userSpaceOnUse">
   <stop stop-color="#434242" offset="0"/>
   <stop stop-color="#D9DADA" offset=".50196"/>
   <stop stop-color="#2B2A29" offset="1"/>
  </linearGradient>
  <linearGradient id="d" x1="5974.6" x2="1145.4" y1="4756.8" y2="1968.7" gradientUnits="userSpaceOnUse">
   <stop stop-color="#C5C6C6" offset="0"/>
   <stop stop-color="#EBECEC" offset=".50196"/>
   <stop stop-color="#C5C6C6" offset="1"/>
  </linearGradient>
  <linearGradient id="at" x1="9170.3" x2="5993.2" y1="6504.4" y2="4670.1" gradientUnits="userSpaceOnUse" xlink:href="#d">
  </linearGradient>
  <linearGradient id="c" x1="3348.9" x2="5173" y1="5249.6" y2="2090.3" gradientUnits="userSpaceOnUse">
   <stop stop-color="#E31E24" offset="0"/>
   <stop stop-color="#EF7F1A" offset=".50196"/>
   <stop stop-color="#B52322" offset="1"/>
  </linearGradient>
  <linearGradient id="ax" x1="4507.4" x2="6331.5" y1="5918.5" y2="2759.2" gradientUnits="userSpaceOnUse" xlink:href="#c">
  </linearGradient>
  <linearGradient id="ay" x1="5666" x2="7490" y1="6587.4" y2="3428" gradientUnits="userSpaceOnUse" xlink:href="#c">
  </linearGradient>
  <linearGradient id="az" x1="354.48" x2="3124.7" y1="4710.8" y2="-87.28" gradientUnits="userSpaceOnUse" xlink:href="#c">
  </linearGradient>
  <linearGradient id="ba" x1="4571.9" x2="6439.6" y1="6006.1" y2="2771.2" gradientUnits="userSpaceOnUse">
   <stop stop-color="#D9DADA" offset="0"/>
   <stop stop-color="#FEFEFE" offset=".50196"/>
   <stop stop-color="#D9DADA" offset="1"/>
  </linearGradient>
  <linearGradient id="bb" x1="7876.5" x2="8493" y1="6469.2" y2="5401.4" gradientUnits="userSpaceOnUse" xlink:href="#c">
  </linearGradient>
  <linearGradient id="b" x1="11050" x2="11709" y1="8564.1" y2="7539.3" gradientUnits="userSpaceOnUse">
   <stop stop-color="#FFED00" offset="0"/>
   <stop stop-color="#FEFEFE" offset=".4902"/>
   <stop stop-color="#FFED00" offset="1"/>
  </linearGradient>
  <linearGradient id="be" x1="12631" x2="12968" y1="9817.5" y2="9292.6" gradientUnits="userSpaceOnUse" xlink:href="#b">
  </linearGradient>
  <linearGradient id="bf" x1="12678" x2="13015" y1="8574.8" y2="8050" gradientUnits="userSpaceOnUse" xlink:href="#b">
  </linearGradient>
  <linearGradient id="bg" x1="13941" x2="14279" y1="9829.4" y2="9304.6" gradientUnits="userSpaceOnUse" xlink:href="#b">
  </linearGradient>
  <linearGradient id="bh" x1="16065" x2="16811" y1="11908" y2="10748" gradientUnits="userSpaceOnUse" xlink:href="#b">
  </linearGradient>
  <linearGradient id="ag" x1="17854" x2="18236" y1="13326" y2="12732" gradientUnits="userSpaceOnUse" xlink:href="#b">
  </linearGradient>
  <linearGradient id="ah" x1="17907" x2="18289" y1="11920" y2="11326" gradientUnits="userSpaceOnUse" xlink:href="#b">
  </linearGradient>
  <linearGradient id="ai" x1="19336" x2="19718" y1="13339" y2="12746" gradientUnits="userSpaceOnUse" xlink:href="#b">
  </linearGradient>
  <linearGradient id="aj" x1="19331" x2="19567" y1="11895" y2="11488" gradientUnits="userSpaceOnUse">
   <stop stop-color="#5B5B5B" offset="0"/>
   <stop stop-color="#D9DADA" offset=".50196"/>
   <stop stop-color="#2B2A29" offset="1"/>
  </linearGradient>
  <radialGradient id="ak" cx="50.001%">
   <stop stop-color="#FEFEFE" offset="0"/>
   <stop stop-color="#FECC00" offset="1"/>
  </radialGradient>
  <radialGradient id="a" cx="31%" cy="74%" r="41.001%">
   <stop stop-color="#FFED00" offset="0"/>
   <stop stop-color="#BBBBBC" offset=".58039"/>
   <stop stop-color="#898989" offset="1"/>
  </radialGradient>
  <radialGradient id="al" cx="31%" cy="74%" r="41.001%" xlink:href="#a">
  </radialGradient>
  <radialGradient id="am" cx="39.001%" cy="75%" r="41%" xlink:href="#a">
  </radialGradient>
  <radialGradient id="an" cx="39%" cy="75%" r="41%" xlink:href="#a">
  </radialGradient>
  <radialGradient id="ao" cx="72%" cy="75.001%" r="41%" xlink:href="#a">
  </radialGradient>
  <radialGradient id="ap" cx="75.001%" cy="68%" r="41.001%" xlink:href="#a">
  </radialGradient>
  <radialGradient id="aq" cx="75%" cy="67.999%" r="41%" xlink:href="#a">
  </radialGradient>
  <radialGradient id="ar" cx="75%" cy="35%" r="41%" xlink:href="#a">
  </radialGradient>
  <radialGradient id="as" cx="75.001%" cy="32%" r="41.001%" xlink:href="#a">
  </radialGradient>
  <radialGradient id="au" cx="75%" cy="32%" r="41%" xlink:href="#a">
  </radialGradient>
  <radialGradient id="av" cx="69%" cy="26%" r="41.001%" xlink:href="#a">
  </radialGradient>
  <radialGradient id="aw" cx="74%" cy="40%" r="41%" xlink:href="#a">
  </radialGradient>
 </defs>
   <path class="fil0" d="m2995 20l15035 3032c802 162 1487 669 1487 1487v8276c0 818-669 1487-1487 1487h-15035c-818 0-1487-669-1487-1487v-11308c0-818 685-1648 1487-1487z"/>
      <polygon class="fil1" points="0 1307 4843 953 2115 5679"/>
      <path class="fil2" d="m4192 3727c-754 1305-1647 2200-1996 1999-349-202-21-1423 732-2728 754-1305 1647-2200 1996-1998 349 201 21 1422-732 2727z"/>
     <path class="fil3" d="m8499 4044l-1795 3109-3776-2180c-230-132-14-936 482-1794 495-859 1083-1448 1313-1315l3776 2180z"/>
     <path class="fil4" d="m3793 5472l-443-255c-230-133-14-936 482-1795 495-859 1083-1447 1313-1315l443 256c-279 37-794 593-1236 1359-443 767-667 1491-559 1750z"/>
     <path class="fil5" d="m4951 6141l-443-256c-229-132-14-936 482-1794 496-859 1084-1447 1313-1315l443 256c-278 37-793 593-1236 1359-442 767-666 1490-559 1750z"/>
     <path class="fil6" d="m6110 6810l-443-256c-230-132-14-936 482-1794 495-859 1083-1447 1313-1315l443 256c-279 37-793 593-1236 1359-443 767-667 1490-559 1750z"/>
     <path class="fil7" d="m7997 5827c-495 859-1083 1447-1313 1315-229-133-14-936 482-1795 496-858 1084-1447 1313-1314 230 132 14 936-482 1794z"/>
     <path class="fil8" d="m9173 5822l-593 1026-1246-720c-76-44-5-309 159-592 163-283 358-478 433-434l1247 720z"/>
     <path class="fil9" d="m9011 6413c-163 283-357 477-433 434-76-44-5-309 159-593 164-283 358-477 433-434 76 44 5 309-159 593z"/>
      <path class="fil10" d="m19722 11660l-164 284-11792-6808c-21-12-1-86 44-164s99-132 120-120l11792 6808z"/>
      <path class="fil11" d="m19674 11821c-45 79-99 132-120 120s-1-85 44-163c45-79 99-132 120-120s1 85-44 163z"/>
     <path class="fil12" d="m8825 6422c1445 41 4372 1898 5096 3279-1530-192-4424-1912-5096-3279z"/>
     <path class="fil13" d="m11491 8720c740 21 2240 973 2610 1680-783-99-2266-979-2610-1680z"/>
     <path class="fil14" d="m12802 8732c740 21 2239 973 2610 1680-783-99-2266-980-2610-1680z"/>
     <path class="fil15" d="m11538 7478c740 21 2239 972 2610 1679-783-98-2266-979-2610-1679z"/>
     <path class="fil16" d="m13549 9485c1634 45 4945 2147 5764 3709-1730-218-5004-2163-5764-3709z"/>
     <path class="fil17" d="m16565 12085c837 23 2533 1099 2952 1900-886-112-2563-1108-2952-1900z"/>
     <path class="fil18" d="m18047 12098c838 24 2534 1100 2953 1900-886-111-2563-1108-2953-1900z"/>
     <path class="fil19" d="m16618 10679c837 23 2533 1100 2952 1900-886-112-2563-1108-2952-1900z"/>
   <polygon class="fil20" points="15243 6854 15309 7214 14975 7291 15303 7430 15123 7926 15480 7555 15728 7823 15663 7463 15996 7386 15668 7247 15842 6738 15491 7122"/>
   <polygon class="fil21" points="13290 5657 13356 6017 13022 6094 13350 6233 13170 6729 13527 6358 13775 6626 13710 6266 14043 6189 13715 6050 13889 5541 13539 5925"/>
   <polygon class="fil22" points="7666 13268 7769 12917 8102 12997 7871 12726 8254 12364 7769 12535 7666 12185 7564 12535 7231 12455 7462 12726 7079 13104 7564 12917"/>
   <polygon class="fil22" points="9931 11780 10033 11429 10366 11509 10136 11238 10519 10876 10033 11047 9931 10696 9829 11047 9496 10967 9727 11238 9343 11616 9829 11429"/>
   <polygon class="fil23" points="15024 3473 15389 3483 15396 3825 15600 3534 16047 3813 15759 3387 16073 3199 15707 3189 15701 2847 15497 3138 15035 2863 15338 3285"/>
   <polygon class="fil24" points="17219 6596 17584 6606 17591 6948 17794 6657 18242 6936 17953 6510 18267 6322 17902 6312 17895 5970 17691 6261 17229 5986 17532 6408"/>
   <polygon class="fil22" points="6934 9972 7036 9621 7369 9701 7138 9430 7522 9068 7036 9239 6934 8888 6832 9239 6499 9159 6730 9430 6346 9808 6832 9621"/>
   <polygon class="fil25" points="13343 12140 13278 11780 13611 11703 13283 11564 13464 11068 13107 11439 12858 11171 12924 11531 12590 11608 12918 11747 12744 12256 13095 11872"/>
   <polygon class="fil26" points="11474 4363 11142 4516 11271 4834 10969 4646 10668 5079 10765 4573 10403 4525 10734 4371 10605 4054 10908 4242 11224 3806 11112 4314"/>
   <polygon class="fil27" points="8920 2112 8588 2266 8717 2583 8415 2395 8113 2828 8211 2322 7848 2274 8180 2120 8051 1803 8354 1991 8670 1556 8558 2063"/>
   <polygon class="fil28" points="5311 8544 5376 8903 5715 8859 5457 9104 5800 9505 5335 9283 5197 9621 5132 9262 4793 9306 5051 9061 4709 8645 5172 8882"/>
   <polygon class="fil29" points="2257 9334 2582 9500 2753 9203 2791 9557 3318 9527 2860 9762 3045 10078 2720 9911 2549 10208 2511 9854 1973 9874 2442 9649"/>
   <polygon class="fil30" points="3782 11637 3847 11996 4186 11952 3929 12197 4272 12597 3807 12376 3668 12714 3604 12354 3264 12399 3522 12154 3181 11738 3644 11975"/>
   <polygon class="fil31" points="3273 7382 3338 7023 3677 7067 3419 6822 3762 6421 3298 6643 3159 6305 3094 6664 2755 6620 3013 6865 2671 7281 3134 7044"/>
   <polygon class="fil32" points="12022 13587 12087 13227 12427 13271 12169 13026 12512 12626 12047 12847 11909 12509 11844 12869 11504 12824 11762 13069 11421 13485 11884 13249"/>
</svg>
